Coordinates
version=1
nRows=10
nColumns=38
inDegrees=yes

Units are S.I. units (second, meters, Newtons, ...)
Angles are in degrees.

endheader
time	pelvis_tilt	pelvis_list	pelvis_rotation	pelvis_tx	pelvis_ty	pelvis_tz	hip_flexion_r	hip_adduction_r	hip_rotation_r	knee_angle_r	ankle_angle_r	subtalar_angle_r	mtp_angle_r	hip_flexion_l	hip_adduction_l	hip_rotation_l	knee_angle_l	ankle_angle_l	subtalar_angle_l	mtp_angle_l	lumbar_extension	lumbar_bending	lumbar_rotation	arm_flex_r	arm_add_r	arm_rot_r	elbow_flex_r	pro_sup_r	wrist_flex_r	wrist_dev_r	arm_flex_l	arm_add_l	arm_rot_l	elbow_flex_l	pro_sup_l	wrist_flex_l	wrist_dev_l
      0.01000000	     -3.31258831	      1.21570088	     -1.07213173	      0.02727624	      0.87103547	      2.61027322	     21.09942794	      1.74621292	     -3.64515187	    -15.83810916	     -0.76711188	     -0.00006080	      0.00000000	      3.32528423	     -0.23936303	      3.69066965	    -65.82246851	    -20.54076607	     -0.00013635	      0.00000000	     -5.41001094	     -2.56523654	     -6.05095372	    -27.12157972	    -11.19958321	     -8.08213009	     45.23567908	     82.08203007	     -0.00009686	     -0.00002535	     24.94563738	     -7.66250539	     10.56042051	    152.20131776	  50264.23331728	     -0.00005314	     -0.00000482
      0.02000000	     -3.13426721	     -0.05948066	     -1.75336617	      0.02615881	      0.86180754	      2.61322508	     22.49441955	      3.68533210	     -2.69188042	    -20.60825603	      2.58755040	     -0.00006512	      0.00000000	      4.75253698	     -2.20265026	      2.85469682	    -69.93396482	    -19.00714788	     -0.00013062	      0.00000000	     -5.78880350	     -1.30244890	     -5.04281170	    -25.20400402	    -11.54665298	     -6.09183539	     43.52723419	     81.06625491	     -0.00008249	     -0.00001785	     25.31370185	     -7.53011353	     10.59522180	    152.36190482	  50264.22406846	     -0.00005292	     -0.00000502
      0.03000000	     -2.50887744	     -1.57776004	     -2.73931437	      0.02530336	      0.85273718	      2.61612240	     23.76963204	      5.81032805	     -1.91988876	    -26.26525384	      5.14734952	     -0.00006888	      0.00000000	      5.53812788	     -4.38410499	      2.00158115	    -73.75824090	    -17.10791897	     -0.00012368	      0.00000000	     -6.69757133	      0.25974350	     -3.58233100	    -23.29297012	    -11.95418338	     -4.23999464	     42.08256845	     80.35189329	     -0.00007353	     -0.00001423	     25.81510341	     -7.10300791	     10.59327954	    152.42846664	  50264.22203165	     -0.00005443	     -0.00000333
      0.04000000	     -1.93076034	     -2.65285612	     -3.66833238	      0.02441426	      0.84390793	      2.61880477	     25.06004599	      7.61469816	     -0.68072850	    -32.02704738	      8.19804877	     -0.00007852	      0.00000000	      6.32233875	     -5.96964555	      1.37300888	    -77.16559948	    -15.24609450	     -0.00011227	      0.00000000	     -7.57464978	      1.27293853	     -2.16404434	    -21.17625661	    -12.27990245	     -2.09369761	     40.50910373	     79.40759056	     -0.00006696	     -0.00001119	     26.32245705	     -6.75124055	     10.75892053	    152.53956944	  50264.22542641	     -0.00005071	     -0.00000560
      0.05000000	     -1.61884665	     -3.57966821	     -4.78022040	      0.02424920	      0.83598241	      2.62116029	     25.78915148	      9.50165280	      0.87020724	    -36.54412790	     11.08743216	     -0.00008868	      0.00000000	      7.20820675	     -7.40474452	      0.53710361	    -80.05037712	    -13.06153914	     -0.00010672	      0.00000000	     -8.03026285	      2.14928006	     -0.62808371	    -18.85279712	    -12.64176071	      0.29253368	     38.60465079	     79.42948158	     -0.00005602	     -0.00000929	     26.43742213	     -6.39101040	     10.94572056	    152.56273898	  50264.23671791	     -0.00004844	     -0.00000284
      0.06000000	     -2.14524250	     -4.12853822	     -5.95915780	      0.02444727	      0.82920572	      2.62284242	     26.59537878	     10.99557096	      2.39326520	    -39.78752750	     13.59560446	     -0.00010418	      0.00000000	      9.01005596	     -8.41695976	     -0.31348134	    -82.46008154	    -11.12660508	     -0.00010328	      0.00000000	     -7.40626957	      2.76016329	      0.52903188	    -15.89699959	    -13.03687169	      3.50151750	     35.76180031	     80.40234827	     -0.00004785	     -0.00000741	     25.83382634	     -6.27053879	     11.01231288	    152.60612340	  50264.23890963	     -0.00005035	     -0.00000059
      0.07000000	     -2.79447021	     -4.69883523	     -6.90608425	      0.02492207	      0.82397284	      2.62441081	     26.76772325	     12.24725682	      3.34878070	    -41.75429670	     15.71377961	     -0.00011217	      0.00000000	     10.98959629	     -9.54137496	     -1.04369896	    -84.41808178	     -9.19913066	     -0.00010103	      0.00000000	     -6.57139573	      3.44965204	      1.44572741	    -12.72127595	    -13.25329453	      7.09653341	     32.72428906	     82.03385893	     -0.00004907	     -0.00000302	     25.16370080	     -6.23115481	     11.09651582	    152.37147913	  50264.26127888	     -0.00004637	     -0.00000248
      0.08000000	     -3.21279122	     -5.11901867	     -7.42399182	      0.02536984	      0.82045622	      2.62581399	     26.05397351	     13.00118131	      3.69309388	    -42.48290895	     17.73640113	     -0.00011495	      0.00000000	     12.82285260	    -10.42437583	     -1.39557005	    -85.91787738	     -7.35931766	     -0.00010369	      0.00000000	     -5.92322095	      3.98845441	      2.04043398	     -9.55351901	    -13.06140938	      9.96328298	     29.89069995	     84.87471186	     -0.00004383	     -0.00000209	     24.60908248	     -6.43870797	     11.03052103	    152.17900171	  50264.26894464	     -0.00004814	     -0.00000135
      0.09000000	     -3.30254206	     -5.24466263	     -7.60545233	      0.02566493	      0.81880775	      2.62647210	     24.55705534	     13.10942520	      3.85113471	    -42.31258850	     19.36186426	     -0.00011376	      0.00000000	     14.40057924	    -10.72251603	     -1.50012253	    -86.87541145	     -5.34412282	     -0.00010728	      0.00000000	     -5.67119334	      4.21667950	      2.27670983	     -6.37670617	    -12.72264391	     12.61752495	     27.53407616	     87.97845814	     -0.00004101	      0.00000232	     24.08507882	     -6.61948968	     10.92404502	    152.09323693	  50264.26576148	     -0.00004882	     -0.00000315
      0.10000000	     -3.10321468	     -5.09621449	     -7.33946484	      0.02577390	      0.81866653	      2.62647122	     22.75168844	     12.64435004	      3.55592440	    -41.97741526	     20.76040527	     -0.00010883	      0.00000000	     15.81816349	    -10.51277410	     -1.37785419	    -87.36936695	     -3.03405862	     -0.00011507	      0.00000000	     -5.72947491	      4.15824420	      2.26507559	     -3.35434412	    -12.16038038	     14.83287423	     25.59659748	     90.88299082	     -0.00003076	      0.00001123	     23.94110143	     -6.81748378	     10.89383703	    151.94826777	  50264.26885254	     -0.00004765	     -0.00000568
